<svg width="262" height="89" viewBox="0 0 262 89" fill="none" xmlns="http://www.w3.org/2000/svg">
<path d="M60.6601 35.8232C60.173 35.5425 59.6206 35.3947 59.0585 35.3947C58.4963 35.3947 57.944 35.5425 57.4569 35.8232L50.1083 40.2008L45.1151 43.0559L37.7665 47.4336C37.2794 47.7143 36.7271 47.8621 36.1649 47.8621C35.6027 47.8621 35.0504 47.7143 34.5633 47.4336L28.7222 44.0076C28.2429 43.7214 27.8443 43.3179 27.5641 42.835C27.2839 42.3521 27.1313 41.8059 27.1206 41.2477V34.4908C27.1113 33.9286 27.2555 33.3746 27.5377 32.8882C27.8199 32.4019 28.2295 32.0018 28.7222 31.731L34.4691 28.4001C34.9562 28.1194 35.5086 27.9717 36.0708 27.9717C36.6329 27.9717 37.1853 28.1194 37.6724 28.4001L43.4193 31.731C43.8986 32.0172 44.2971 32.4208 44.5773 32.9036C44.8575 33.3864 45.0101 33.9327 45.0208 34.4908V38.8685L50.014 35.9183V31.5406C50.0234 30.9784 49.8792 30.4243 49.597 29.938C49.3148 29.4517 48.9052 29.0516 48.4125 28.7807L37.7665 22.4997C37.2794 22.219 36.7271 22.0713 36.1649 22.0713C35.6027 22.0713 35.0504 22.219 34.5633 22.4997L23.729 28.7808C23.2362 29.0516 22.8267 29.4517 22.5445 29.938C22.2623 30.4243 22.1181 30.9784 22.1274 31.5406V44.1979C22.1181 44.7601 22.2623 45.3142 22.5445 45.8005C22.8267 46.2868 23.2362 46.6869 23.729 46.9577L34.5634 53.2387C35.0504 53.5195 35.6027 53.6673 36.1649 53.6673C36.7271 53.6673 37.2794 53.5195 37.7665 53.2387L45.1151 48.9562L50.1083 46.0061L57.4569 41.7235C57.944 41.4428 58.4963 41.2951 59.0585 41.2951C59.6207 41.2951 60.173 41.4428 60.6601 41.7235L66.407 45.0544C66.8863 45.3407 67.2848 45.7442 67.565 46.227C67.8452 46.7099 67.9978 47.2561 68.0085 47.8142V54.5712C68.0179 55.1333 67.8737 55.6874 67.5914 56.1737C67.3092 56.66 66.8997 57.0601 66.407 57.331L60.6601 60.7571C60.173 61.0378 59.6207 61.1855 59.0585 61.1855C58.4963 61.1855 57.944 61.0378 57.4569 60.7571L51.71 57.4262C51.2306 57.14 50.8321 56.7364 50.5518 56.2536C50.2716 55.7707 50.119 55.2244 50.1083 54.6663V50.2886L45.1151 53.2387V57.6165C45.1058 58.1787 45.25 58.7328 45.5322 59.2191C45.8144 59.7054 46.2239 60.1055 46.7166 60.3763L57.551 66.6575C58.0381 66.9382 58.5904 67.0859 59.1526 67.0859C59.7148 67.0859 60.2671 66.9382 60.7542 66.6575L71.5886 60.3763C72.0679 60.0901 72.4665 59.6866 72.7467 59.2038C73.0269 58.7209 73.1795 58.1747 73.1902 57.6165V44.9592C73.1995 44.397 73.0553 43.8429 72.7731 43.3566C72.4909 42.8703 72.0813 42.4702 71.5886 42.1994L60.6601 35.8232Z" fill="#7B3FE4"/>
<path d="M93.0856 63.0321V52.524C93.806 53.2907 94.6868 53.8887 95.6652 54.2754C96.6435 54.662 97.6952 54.8277 98.7451 54.7607C104.915 54.7607 109.085 50.414 109.085 43.7885C109.085 37.1629 105.256 32.8162 99.2557 32.8162C98.0915 32.7503 96.9279 32.9562 95.857 33.4176C94.7861 33.8791 93.8373 34.5834 93.0856 35.4749V33.1538H87.1709V63.0321H93.0856ZM98.0217 49.6966C94.8302 49.6966 92.7452 47.3333 92.7452 43.7885C92.7452 40.2014 94.8302 37.8381 98.0217 37.8381C101.128 37.8381 103.256 40.2014 103.256 43.7885C103.256 47.3333 101.128 49.6966 98.0217 49.6966Z" fill="white"/>
<path d="M122.516 54.7613C124.672 54.6942 126.76 53.9937 128.52 52.7472C130.28 51.5007 131.633 49.7634 132.412 47.7523C133.191 45.7411 133.36 43.5452 132.898 41.4386C132.436 39.332 131.364 37.408 129.815 35.907C128.267 34.4059 126.311 33.3942 124.191 32.9982C122.071 32.6022 119.881 32.8394 117.895 33.6801C115.909 34.5209 114.215 35.928 113.024 37.7258C111.833 39.5236 111.197 41.6325 111.197 43.7891C111.169 45.2674 111.445 46.7358 112.008 48.1029C112.572 49.4699 113.41 50.7065 114.472 51.7356C115.533 52.7648 116.795 53.5645 118.179 54.085C119.563 54.6055 121.04 54.8357 122.516 54.7613ZM122.516 49.6972C119.325 49.6972 117.155 47.2918 117.155 43.7891C117.155 40.2442 119.325 37.8388 122.516 37.8388C125.708 37.8388 127.878 40.2442 127.878 43.7891C127.878 47.2918 125.708 49.6972 122.516 49.6972Z" fill="white"/>
<path d="M143.326 54.4234V23.9121H137.411V54.4234H143.326Z" fill="white"/>
<path d="M161.106 33.1538L156.638 46.8691L152.127 33.1538H146.085L153.872 54.2543L150.723 63.032H156.383L159.404 54.3387L167.191 33.1538H161.106Z" fill="white"/>
<path d="M183.802 35.2643C183.058 34.4447 182.142 33.8001 181.119 33.3769C180.097 32.9537 178.993 32.7623 177.887 32.8166C171.632 32.8166 167.845 37.1633 167.845 43.7889C167.845 50.4144 171.632 54.7611 177.973 54.7611C179.077 54.8279 180.182 54.6379 181.201 54.2059C182.22 53.7739 183.125 53.1117 183.844 52.2713V55.0565C183.878 55.4856 183.822 55.9169 183.681 56.3236C183.54 56.7302 183.317 57.1036 183.026 57.4203C182.735 57.737 182.381 57.9903 181.988 58.1645C181.594 58.3386 181.169 58.4299 180.739 58.4326H170.866V63.0325H181.674C186.526 63.0325 189.76 60.1206 189.76 55.6895V33.1542H183.802V35.2643ZM178.908 49.697C175.76 49.697 173.674 47.3759 173.674 43.7889C173.674 40.2018 175.76 37.8385 178.908 37.8385C182.1 37.8385 184.185 40.2018 184.185 43.7889C184.185 47.3759 182.1 49.697 178.908 49.697V49.697Z" fill="white"/>
<path d="M204.671 54.7613C206.826 54.6944 208.915 53.994 210.675 52.7475C212.435 51.5011 213.788 49.7639 214.567 47.7527C215.346 45.7416 215.515 43.5456 215.053 41.439C214.591 39.3323 213.519 37.4083 211.971 35.9072C210.423 34.4061 208.466 33.3943 206.346 32.9983C204.226 32.6022 202.037 32.8393 200.051 33.6801C198.065 34.5208 196.37 35.9279 195.179 37.7258C193.988 39.5236 193.353 41.6324 193.353 43.7891C193.324 45.2673 193.6 46.7356 194.164 48.1026C194.727 49.4696 195.565 50.7061 196.627 51.7352C197.688 52.7643 198.95 53.564 200.334 54.0846C201.718 54.6052 203.194 54.8356 204.671 54.7613ZM204.671 49.6972C201.479 49.6972 199.31 47.2918 199.31 43.7891C199.31 40.2442 201.479 37.8388 204.671 37.8388C207.863 37.8388 210.033 40.2442 210.033 43.7891C210.033 47.2918 207.863 49.6972 204.671 49.6972Z" fill="white"/>
<path d="M225.182 54.4232V42.7758C225.138 42.1693 225.221 41.5605 225.424 40.9875C225.627 40.4145 225.946 39.8896 226.362 39.4458C226.777 39.002 227.28 38.6489 227.839 38.4086C228.397 38.1683 228.999 38.0459 229.607 38.0493C230.177 38.0434 230.742 38.1564 231.265 38.381C231.789 38.6057 232.26 38.937 232.649 39.354C233.037 39.7709 233.335 40.2643 233.522 40.8026C233.709 41.3409 233.782 41.9123 233.736 42.4803V54.4232H239.693V41.1721C239.693 36.2768 236.543 32.8163 231.693 32.8163C230.413 32.7362 229.135 32.999 227.99 33.5776C226.846 34.1562 225.876 35.0297 225.182 36.108V33.1539H219.226V54.4232H225.182Z" fill="white"/>
</svg>
